
<svg xmlns="http://www.w3.org/2000/svg" viewBox="0 0 85 85"> <path fill="none" stroke="#203986" stroke-width="2.5" stroke-miterlimit="10" d="M63.4,29.1V17.6c0-2.2-1.8-4-4-4H31.2l-11.2,9.7 v44.1c0,2.2,1.8,4,4,4h35.3c2.2,0,4-1.8,4-4v-7.8"/> <polyline fill="none" stroke="#203986" stroke-width="2.5" stroke-miterlimit="10" points="33,14.4 33,26.7 25.5,26.7 "/> <line fill="none" stroke="#203986" stroke-width="2.5" stroke-linecap="round" stroke-miterlimit="10" x1="28.4" y1="42.5" x2="49.6" y2="42.5"/> <line fill="none" stroke="#203986" stroke-width="2.5" stroke-linecap="round" stroke-miterlimit="10" x1="28.4" y1="50.6" x2="46.6" y2="50.6"/> <line fill="none" stroke="#203986" stroke-width="2.5" stroke-linecap="round" stroke-miterlimit="10" x1="28.4" y1="58.6" x2="44.7" y2="58.6"/> <path fill="none" stroke="#203986" stroke-width="2.5" stroke-linejoin="round" stroke-miterlimit="10" d="M63,54.9l-13.2,4 l4.6-13.2l17.1-17.1c0.9-0.9,2.8-0.6,4.1,0.6l4.2,4.2c1.3,1.3,1.6,3.1,0.6,4.1L63,54.9z"/> <line fill="none" stroke="#203986" stroke-width="2.5" stroke-linejoin="round" stroke-miterlimit="10" x1="62.9" y1="53.3" x2="55.5" y2="45.9"/> <line fill="none" stroke="#203986" stroke-width="2.5" stroke-linejoin="round" stroke-miterlimit="10" x1="53.8" y1="57.5" x2="51.4" y2="55"/> <line fill="none" stroke="#203986" stroke-width="2.5" stroke-linejoin="round" stroke-miterlimit="10" x1="59.4" y1="49.7" x2="69.1" y2="40"/> <line fill="none" stroke="#203986" stroke-width="2.5" stroke-linejoin="round" stroke-miterlimit="10" x1="68" y1="32.4" x2="76.5" y2="41"/> </svg>