
<svg xmlns="http://www.w3.org/2000/svg" viewBox="0 0 85 85"> <path fill="none" stroke="#203986" stroke-width="2.5" stroke-linecap="round" stroke-linejoin="round" stroke-miterlimit="10" d="M56.5,18.3c0,0-13.8-10.2-30.4-0.8c0,0-9.3,4-7.3,16.9c0,0,0.4,3.6-0.7,5.3l-6.2,7.2c0,0-0.8,2.2,1.6,2.4l3.8,0.8 c0,0,1.6,3.1,1.7,5.4c0.2,2.4-0.4,5.3-0.4,5.3s-1.3,3.5,0.8,5.1c0.4,0.1,1.9,1.8,12.9-0.5c0,0,1.1,0.5,1.7,6.2"/> <line fill="none" stroke="#203986" stroke-width="2.5" stroke-linecap="round" stroke-linejoin="round" stroke-miterlimit="10" x1="19.4" y1="55.6" x2="24.1" y2="55.7"/> <path fill="none" stroke="#203986" stroke-width="2.5" stroke-linecap="round" stroke-miterlimit="10" d="M70.3,64.9v-3.4 c0-0.7-0.7-1.3-1.4-1.3H57.5"/> <path fill="none" stroke="#203986" stroke-width="2.5" stroke-linecap="round" stroke-linejoin="round" stroke-miterlimit="10" d="M56,65.2h16c0.7,0,1.4,0.6,1.4,1.3v4.6H41.1v-4.6c0-0.7,0.7-1.3,1.4-1.3h1.7v-3.7c0-0.7,0.7-1.3,1.4-1.3h4.9"/> <polyline fill="none" stroke="#203986" stroke-width="2.5" stroke-linecap="square" stroke-miterlimit="10" points="54.8,28.6 54.8,23.9 59.6,23.9 59.6,28.6 64.5,28.6 64.5,23.9 69.3,23.9 69.3,32.7 64.6,35.3 67.5,59.8 "/> <polyline fill="none" stroke="#203986" stroke-width="2.5" stroke-linecap="square" stroke-miterlimit="10" points="46.9,59.8 49.8,35.3 45.2,32.7 45.2,23.9 50,23.9 50,28.6 "/> <line fill="none" stroke="#203986" stroke-width="2.5" stroke-miterlimit="10" x1="64" y1="35.9" x2="54.2" y2="35.9"/> </svg>
