
<svg xmlns="http://www.w3.org/2000/svg" viewBox="0 0 85 85"> <line fill="none" stroke="#203986" stroke-width="2.5" stroke-miterlimit="10" x1="38.2" y1="32.8" x2="52.8" y2="32.8"/> <line fill="none" stroke="#203986" stroke-width="2.5" stroke-miterlimit="10" x1="38.2" y1="39.9" x2="52.8" y2="39.9"/> <line fill="none" stroke="#203986" stroke-width="2.5" stroke-miterlimit="10" x1="38.2" y1="47" x2="52.8" y2="47"/> <line fill="none" stroke="#203986" stroke-width="2.5" stroke-miterlimit="10" x1="38.2" y1="61.3" x2="52.8" y2="61.3"/> <line fill="none" stroke="#203986" stroke-width="2.5" stroke-miterlimit="10" x1="38.2" y1="68.4" x2="52.8" y2="68.4"/> <line fill="none" stroke="#203986" stroke-width="2.5" stroke-miterlimit="10" x1="38.2" y1="54.2" x2="52.8" y2="54.2"/> <line fill="none" stroke="#203986" stroke-width="2.5" stroke-miterlimit="10" x1="38.2" y1="75.6" x2="52.8" y2="75.6"/> <line fill="none" stroke="#203986" stroke-width="2.5" stroke-linecap="round" stroke-miterlimit="10" x1="45.5" y1="8.1" x2="45.5" y2="13.9"/> <polyline fill="none" stroke="#203986" stroke-width="2.5" stroke-linejoin="round" stroke-miterlimit="10" points="32.9,76.9 32.9,25.6 58.1,25.6 58.1,76.9 "/> <polyline fill="none" stroke="#203986" stroke-width="2.5" stroke-linejoin="round" stroke-miterlimit="10" points="37.4,25.4 37.4,19.4 53.6,19.4 53.6,25.4 "/> <polyline fill="none" stroke="#203986" stroke-width="2.5" stroke-linecap="round" stroke-linejoin="round" stroke-miterlimit="10" points="40.9,14.1 50.1,14.1 50.1,19.3 "/> <polyline fill="none" stroke="#203986" stroke-width="2.5" stroke-linejoin="round" stroke-miterlimit="10" points="13.9,76.9 13.9,46.6 27.8,46.6 "/> <line fill="none" stroke="#203986" stroke-width="2.5" stroke-miterlimit="10" x1="26.5" y1="62.2" x2="26.5" y2="67.1"/> <line fill="none" stroke="#203986" stroke-width="2.5" stroke-miterlimit="10" x1="20.7" y1="62.2" x2="20.7" y2="67.1"/> <line fill="none" stroke="#203986" stroke-width="2.5" stroke-miterlimit="10" x1="26.5" y1="52.4" x2="26.5" y2="57.3"/> <line fill="none" stroke="#203986" stroke-width="2.5" stroke-miterlimit="10" x1="20.7" y1="52.4" x2="20.7" y2="57.3"/> <line fill="none" stroke="#203986" stroke-width="2.5" stroke-miterlimit="10" x1="26.5" y1="72" x2="26.5" y2="76.9"/> <line fill="none" stroke="#203986" stroke-width="2.5" stroke-miterlimit="10" x1="20.7" y1="72" x2="20.7" y2="76.9"/> <polyline fill="none" stroke="#203986" stroke-width="2.5" stroke-linejoin="round" stroke-miterlimit="10" points="71.1,76.9 71.1,56.5 63.5,56.5 "/> <line fill="none" stroke="#203986" stroke-width="2.5" stroke-miterlimit="10" x1="64.8" y1="62.2" x2="64.8" y2="67.1"/> <line fill="none" stroke="#203986" stroke-width="2.5" stroke-miterlimit="10" x1="64.8" y1="72" x2="64.8" y2="76.9"/> </svg>