<?xml version="1.0" encoding="utf-8"?>
<!-- Generator: Adobe Illustrator 23.0.3, SVG Export Plug-In . SVG Version: 6.00 Build 0)  -->
<svg version="1.1" baseProfile="tiny" id="Layer_1" xmlns="http://www.w3.org/2000/svg" xmlns:xlink="http://www.w3.org/1999/xlink"
	 x="0px" y="0px" viewBox="0 0 297.5 138.2" xml:space="preserve">
<path fill="#FFFFFF" d="M259.8,38.7c-9.5,0-16.8,2.9-22.1,8.9V41h-33.2v95h33.6V90.2c0-16.1,4.3-21.1,13.6-21.1
	c8.1,0,12.2,5,12.2,14.8V136h33.6V80.7C297.5,53.4,282.6,38.7,259.8,38.7z"/>
<path fill="#FFFFFF" d="M161.9,45.9c-5.3-3.8-11.5-6.1-18.4-6.9c-1.9-0.2-3.8-0.3-5.8-0.3c-13.2,0-24.3,4.8-33.2,14.3
	c-8.9,9.5-13.4,21.4-13.4,35.4c0,14.2,4.5,26.1,13.4,35.6c9.1,9.5,20.4,14.1,34.2,14.1c1.7,0,3.2-0.1,4.8-0.2
	c7.6-0.8,13.8-3.6,18.8-8.3v6.4H195V0h-33.1L161.9,45.9L161.9,45.9z M143.5,108.1c-10.7,0-18.8-8.1-18.8-19.7
	c0-11.4,8.1-19.9,18.8-19.9c10.7,0,18.8,8.4,18.8,19.9C162.3,99.9,154.4,108.1,143.5,108.1z"/>
<path fill="#FFFFFF" d="M52.2,108.1c-10.3,0-18.6-8.1-18.6-19.6c0-11.4,8.9-19.7,19-19.7c7.2,0,13.2,2.9,18.1,8.9l21.7-20.5
	c-9.5-12.2-23.3-18.4-41.1-18.4c-14.2,0-26.2,4.7-36.3,14.2C5,62.1,0,73.9,0,88.5c0,14.5,5,26.4,15,35.6c10.1,9.4,22.1,14,36.3,14
	c18.4,0,32.4-6.6,41.9-19.7L71.4,97.8C66.7,104.5,60.3,108.1,52.2,108.1z"/>
</svg>
