<?xml version="1.0" encoding="utf-8"?>
<!-- Generator: Adobe Illustrator 23.0.3, SVG Export Plug-In . SVG Version: 6.00 Build 0)  -->
<svg version="1.1" baseProfile="tiny" id="Camada_1"
	 xmlns="http://www.w3.org/2000/svg" xmlns:xlink="http://www.w3.org/1999/xlink" x="0px" y="0px" viewBox="0 0 493.6 342"
	 xml:space="preserve">
<rect x="332.5" y="9.4" fill="#023246" width="77.8" height="72.7"/>
<path fill="#203986" d="M372.1,148.5h-26.5V20h128.5v26.5C474.2,102.8,428.5,148.5,372.1,148.5z"/>
<ellipse transform="matrix(0.7071 -0.7071 0.7071 0.7071 113.4831 336.1317)" fill="none" stroke="#FF7853" stroke-miterlimit="10" cx="462.5" cy="31.1" rx="30.6" ry="30.6"/>
<g>
	<polygon fill="#FF7853" points="359.2,31.1 353.4,38.9 365,38.9 359.2,31.1 353.4,38.9 365,38.9 	"/>
	<polygon fill="#FF7853" points="359.2,40.6 353.4,48.4 365,48.4 359.2,40.6 353.4,48.4 365,48.4 	"/>
</g>
<g>
	<polygon fill="#FF7853" points="378,31.1 372.2,38.9 383.8,38.9 378,31.1 372.2,38.9 383.8,38.9 	"/>
	<polygon fill="#FF7853" points="378,40.6 372.2,48.4 383.8,48.4 378,40.6 372.2,48.4 383.8,48.4 	"/>
</g>
<g>
	<line fill="none" stroke="#FF7853" stroke-miterlimit="10" x1="329.2" y1="104.3" x2="447.1" y2="104.3"/>
	<line fill="none" stroke="#FF7853" stroke-miterlimit="10" x1="372.7" y1="110.2" x2="490.6" y2="110.2"/>
</g>
<rect x="32.5" y="18.5" fill="#023246" width="14.5" height="115.1"/>
<rect x="5.7" y="41.4" fill="none" stroke="#FF7853" stroke-miterlimit="10" width="98.7" height="158.2"/>
<circle fill="#203986" cx="73.2" cy="108.5" r="51.9"/>
<g>
	<rect x="10.4" y="168" fill="#FF7853" width="7.8" height="2.4"/>
	<rect x="10.4" y="173.3" fill="#FF7853" width="7.8" height="2.4"/>
	<rect x="10.4" y="178.7" fill="#FF7853" width="7.8" height="2.4"/>
	<rect x="10.4" y="184" fill="#FF7853" width="7.8" height="2.4"/>
</g>
<polygon fill="#FF7853" points="2.2,111.7 5.7,108.2 9.2,111.7 11.5,109.5 8,106 11.5,102.5 9.2,100.3 5.7,103.7 2.2,100.3 0,102.5 
	3.5,106 0,109.5 "/>
<polygon fill="#FF7853" points="2.2,95.2 5.7,91.7 9.2,95.2 11.5,93 8,89.5 11.5,86 9.2,83.7 5.7,87.2 2.2,83.7 0,86 3.5,89.5 0,93 
	"/>
<polygon fill="#FF7853" points="2.2,78.7 5.7,75.2 9.2,78.7 11.5,76.4 8,73 11.5,69.5 9.2,67.2 5.7,70.7 2.2,67.2 0,69.5 3.5,73 
	0,76.4 "/>
<ellipse transform="matrix(0.7071 -0.7071 0.7071 0.7071 -57.2941 357.9221)" fill="#FF7853" cx="403.4" cy="248.1" rx="62.7" ry="62.7"/>
<rect x="358" y="209.8" fill="#203986" width="114.3" height="30.3"/>
<g>
	<rect x="435.4" y="182.3" fill="#203986" width="8.4" height="22.1"/>
	<rect x="447.8" y="182.3" fill="#203986" width="8.4" height="22.1"/>
	<rect x="460.1" y="182.3" fill="#203986" width="8.4" height="22.1"/>
</g>
<g>
	<rect x="380.4" y="299.8" fill="#203986" width="8.4" height="22.1"/>
	<rect x="392.8" y="299.8" fill="#203986" width="8.4" height="22.1"/>
	<rect x="405.2" y="299.8" fill="#203986" width="8.4" height="22.1"/>
</g>
<g>
	<path fill="#FF7853" d="M78.6,203.9c0,0.9-0.7,1.5-1.5,1.5c-0.9,0-1.5-0.7-1.5-1.5c0-0.9,0.7-1.5,1.5-1.5
		C77.9,202.3,78.6,203,78.6,203.9z"/>
	<circle fill="#FF7853" cx="89.8" cy="203.9" r="1.5"/>
	<circle fill="#FF7853" cx="102.5" cy="203.9" r="1.5"/>
	<path fill="#FF7853" d="M116.8,203.9c0,0.9-0.7,1.5-1.5,1.5s-1.5-0.7-1.5-1.5c0-0.9,0.7-1.5,1.5-1.5S116.8,203,116.8,203.9z"/>
	<circle fill="#FF7853" cx="128" cy="203.9" r="1.5"/>
	<circle fill="#FF7853" cx="140.7" cy="203.9" r="1.5"/>
	<circle fill="#FF7853" cx="153.4" cy="203.9" r="1.5"/>
	<path fill="#FF7853" d="M78.6,215.5c0,0.9-0.7,1.5-1.5,1.5c-0.9,0-1.5-0.7-1.5-1.5c0-0.9,0.7-1.5,1.5-1.5
		C77.9,214,78.6,214.7,78.6,215.5z"/>
	<circle fill="#FF7853" cx="89.8" cy="215.5" r="1.5"/>
	<circle fill="#FF7853" cx="102.5" cy="215.5" r="1.5"/>
	<path fill="#FF7853" d="M116.8,215.5c0,0.9-0.7,1.5-1.5,1.5s-1.5-0.7-1.5-1.5c0-0.9,0.7-1.5,1.5-1.5S116.8,214.7,116.8,215.5z"/>
	<circle fill="#FF7853" cx="128" cy="215.5" r="1.5"/>
	<circle fill="#FF7853" cx="140.7" cy="215.5" r="1.5"/>
	<circle fill="#FF7853" cx="153.4" cy="215.5" r="1.5"/>
	<path fill="#FF7853" d="M78.6,227.2c0,0.9-0.7,1.5-1.5,1.5c-0.9,0-1.5-0.7-1.5-1.5c0-0.9,0.7-1.5,1.5-1.5
		C77.9,225.6,78.6,226.3,78.6,227.2z"/>
	<path fill="#FF7853" d="M91.3,227.2c0,0.9-0.7,1.5-1.5,1.5s-1.5-0.7-1.5-1.5c0-0.9,0.7-1.5,1.5-1.5S91.3,226.3,91.3,227.2z"/>
	<path fill="#FF7853" d="M104,227.2c0,0.9-0.7,1.5-1.5,1.5s-1.5-0.7-1.5-1.5c0-0.9,0.7-1.5,1.5-1.5S104,226.3,104,227.2z"/>
	<path fill="#FF7853" d="M116.8,227.2c0,0.9-0.7,1.5-1.5,1.5s-1.5-0.7-1.5-1.5c0-0.9,0.7-1.5,1.5-1.5S116.8,226.3,116.8,227.2z"/>
	<path fill="#FF7853" d="M129.5,227.2c0,0.9-0.7,1.5-1.5,1.5c-0.9,0-1.5-0.7-1.5-1.5c0-0.9,0.7-1.5,1.5-1.5
		C128.8,225.6,129.5,226.3,129.5,227.2z"/>
	<path fill="#FF7853" d="M142.2,227.2c0,0.9-0.7,1.5-1.5,1.5c-0.9,0-1.5-0.7-1.5-1.5c0-0.9,0.7-1.5,1.5-1.5
		C141.5,225.6,142.2,226.3,142.2,227.2z"/>
	<path fill="#FF7853" d="M155,227.2c0,0.9-0.7,1.5-1.5,1.5c-0.9,0-1.5-0.7-1.5-1.5c0-0.9,0.7-1.5,1.5-1.5
		C154.3,225.6,155,226.3,155,227.2z"/>
	<path fill="#FF7853" d="M78.6,238.8c0,0.9-0.7,1.5-1.5,1.5c-0.9,0-1.5-0.7-1.5-1.5c0-0.9,0.7-1.5,1.5-1.5
		C77.9,237.3,78.6,238,78.6,238.8z"/>
	<circle fill="#FF7853" cx="89.8" cy="238.8" r="1.5"/>
	<circle fill="#FF7853" cx="102.5" cy="238.8" r="1.5"/>
	<path fill="#FF7853" d="M116.8,238.8c0,0.9-0.7,1.5-1.5,1.5s-1.5-0.7-1.5-1.5c0-0.9,0.7-1.5,1.5-1.5S116.8,238,116.8,238.8z"/>
	<circle fill="#FF7853" cx="128" cy="238.8" r="1.5"/>
	<circle fill="#FF7853" cx="140.7" cy="238.8" r="1.5"/>
	<circle fill="#FF7853" cx="153.4" cy="238.8" r="1.5"/>
</g>
<path fill="#203986" d="M15.6,219.5c20.3-35.2,71.2-35.2,91.5,0v0l45.7,79.2H61.4h0C20.7,298.8-4.7,254.7,15.6,219.5L15.6,219.5
	L15.6,219.5z"/>
<g>
	<polygon fill="#FF7853" points="110.7,305.5 95.2,290 84.8,290 100.3,305.5 	"/>
	<polygon fill="#FF7853" points="127.3,305.5 111.7,290 101.4,290 116.9,305.5 	"/>
</g>
<rect x="33.1" y="211.7" fill="#023246" width="88.6" height="19.2"/>
<polygon fill="#203986" points="289.1,211.6 213.8,211.6 176.2,276.8 213.8,342 289.1,342 326.8,276.8 "/>
<g>
	<path fill="#FF7853" d="M257.3,196c0,0.8-0.6,1.4-1.4,1.4c-0.8,0-1.4-0.6-1.4-1.4c0-0.8,0.6-1.4,1.4-1.4
		C256.7,194.6,257.3,195.3,257.3,196z"/>
	<path fill="#FF7853" d="M268.7,196c0,0.8-0.6,1.4-1.4,1.4c-0.8,0-1.4-0.6-1.4-1.4c0-0.8,0.6-1.4,1.4-1.4
		C268,194.6,268.7,195.3,268.7,196z"/>
	<path fill="#FF7853" d="M280,196c0,0.8-0.6,1.4-1.4,1.4c-0.8,0-1.4-0.6-1.4-1.4c0-0.8,0.6-1.4,1.4-1.4
		C279.4,194.6,280,195.3,280,196z"/>
	<path fill="#FF7853" d="M291.4,196c0,0.8-0.6,1.4-1.4,1.4s-1.4-0.6-1.4-1.4c0-0.8,0.6-1.4,1.4-1.4S291.4,195.3,291.4,196z"/>
	<path fill="#FF7853" d="M302.7,196c0,0.8-0.6,1.4-1.4,1.4c-0.8,0-1.4-0.6-1.4-1.4c0-0.8,0.6-1.4,1.4-1.4
		C302.1,194.6,302.7,195.3,302.7,196z"/>
	<path fill="#FF7853" d="M314.1,196c0,0.8-0.6,1.4-1.4,1.4c-0.8,0-1.4-0.6-1.4-1.4c0-0.8,0.6-1.4,1.4-1.4
		C313.4,194.6,314.1,195.3,314.1,196z"/>
	<path fill="#FF7853" d="M325.4,196c0,0.8-0.6,1.4-1.4,1.4c-0.8,0-1.4-0.6-1.4-1.4c0-0.8,0.6-1.4,1.4-1.4
		C324.8,194.6,325.4,195.3,325.4,196z"/>
	<path fill="#FF7853" d="M257.3,206.4c0,0.8-0.6,1.4-1.4,1.4c-0.8,0-1.4-0.6-1.4-1.4s0.6-1.4,1.4-1.4
		C256.7,205,257.3,205.6,257.3,206.4z"/>
	<path fill="#FF7853" d="M268.7,206.4c0,0.8-0.6,1.4-1.4,1.4c-0.8,0-1.4-0.6-1.4-1.4s0.6-1.4,1.4-1.4
		C268,205,268.7,205.6,268.7,206.4z"/>
	<path fill="#FF7853" d="M280,206.4c0,0.8-0.6,1.4-1.4,1.4c-0.8,0-1.4-0.6-1.4-1.4s0.6-1.4,1.4-1.4C279.4,205,280,205.6,280,206.4z"
		/>
	<path fill="#FF7853" d="M291.4,206.4c0,0.8-0.6,1.4-1.4,1.4s-1.4-0.6-1.4-1.4s0.6-1.4,1.4-1.4S291.4,205.6,291.4,206.4z"/>
	<path fill="#FF7853" d="M302.7,206.4c0,0.8-0.6,1.4-1.4,1.4c-0.8,0-1.4-0.6-1.4-1.4s0.6-1.4,1.4-1.4
		C302.1,205,302.7,205.6,302.7,206.4z"/>
	<path fill="#FF7853" d="M314.1,206.4c0,0.8-0.6,1.4-1.4,1.4c-0.8,0-1.4-0.6-1.4-1.4s0.6-1.4,1.4-1.4
		C313.4,205,314.1,205.6,314.1,206.4z"/>
	<path fill="#FF7853" d="M325.4,206.4c0,0.8-0.6,1.4-1.4,1.4c-0.8,0-1.4-0.6-1.4-1.4s0.6-1.4,1.4-1.4
		C324.8,205,325.4,205.6,325.4,206.4z"/>
	<path fill="#FF7853" d="M257.3,216.8c0,0.8-0.6,1.4-1.4,1.4c-0.8,0-1.4-0.6-1.4-1.4s0.6-1.4,1.4-1.4
		C256.7,215.4,257.3,216,257.3,216.8z"/>
	<path fill="#FF7853" d="M268.7,216.8c0,0.8-0.6,1.4-1.4,1.4c-0.8,0-1.4-0.6-1.4-1.4s0.6-1.4,1.4-1.4
		C268,215.4,268.7,216,268.7,216.8z"/>
	<path fill="#FF7853" d="M280,216.8c0,0.8-0.6,1.4-1.4,1.4c-0.8,0-1.4-0.6-1.4-1.4s0.6-1.4,1.4-1.4C279.4,215.4,280,216,280,216.8z"
		/>
	<path fill="#FF7853" d="M291.4,216.8c0,0.8-0.6,1.4-1.4,1.4s-1.4-0.6-1.4-1.4s0.6-1.4,1.4-1.4S291.4,216,291.4,216.8z"/>
	<path fill="#FF7853" d="M302.7,216.8c0,0.8-0.6,1.4-1.4,1.4c-0.8,0-1.4-0.6-1.4-1.4s0.6-1.4,1.4-1.4
		C302.1,215.4,302.7,216,302.7,216.8z"/>
	<circle fill="#FF7853" cx="312.7" cy="216.8" r="1.4"/>
	<circle fill="#FF7853" cx="324" cy="216.8" r="1.4"/>
	<path fill="#FF7853" d="M257.3,227.2c0,0.8-0.6,1.4-1.4,1.4c-0.8,0-1.4-0.6-1.4-1.4c0-0.8,0.6-1.4,1.4-1.4
		C256.7,225.8,257.3,226.4,257.3,227.2z"/>
	<path fill="#FF7853" d="M268.7,227.2c0,0.8-0.6,1.4-1.4,1.4c-0.8,0-1.4-0.6-1.4-1.4c0-0.8,0.6-1.4,1.4-1.4
		C268,225.8,268.7,226.4,268.7,227.2z"/>
	<path fill="#FF7853" d="M280,227.2c0,0.8-0.6,1.4-1.4,1.4c-0.8,0-1.4-0.6-1.4-1.4c0-0.8,0.6-1.4,1.4-1.4
		C279.4,225.8,280,226.4,280,227.2z"/>
	<path fill="#FF7853" d="M291.4,227.2c0,0.8-0.6,1.4-1.4,1.4s-1.4-0.6-1.4-1.4c0-0.8,0.6-1.4,1.4-1.4S291.4,226.4,291.4,227.2z"/>
	<path fill="#FF7853" d="M302.7,227.2c0,0.8-0.6,1.4-1.4,1.4c-0.8,0-1.4-0.6-1.4-1.4c0-0.8,0.6-1.4,1.4-1.4
		C302.1,225.8,302.7,226.4,302.7,227.2z"/>
	<path fill="#FF7853" d="M314.1,227.2c0,0.8-0.6,1.4-1.4,1.4c-0.8,0-1.4-0.6-1.4-1.4c0-0.8,0.6-1.4,1.4-1.4
		C313.4,225.8,314.1,226.4,314.1,227.2z"/>
	<path fill="#FF7853" d="M325.4,227.2c0,0.8-0.6,1.4-1.4,1.4c-0.8,0-1.4-0.6-1.4-1.4c0-0.8,0.6-1.4,1.4-1.4
		C324.8,225.8,325.4,226.4,325.4,227.2z"/>
</g>
<rect x="176.2" y="304.2" fill="#FF7853" width="92.5" height="21"/>
<g>
	<polygon fill="#FF7853" points="222.6,233.4 226.7,229.3 230.7,233.4 233.4,230.8 229.3,226.7 233.4,222.6 230.7,220 226.7,224 
		222.6,220 219.9,222.6 224,226.7 219.9,230.8 	"/>
	<polygon fill="#FF7853" points="222.6,251.9 226.7,247.8 230.7,251.9 233.4,249.2 229.3,245.2 233.4,241.1 230.7,238.5 
		226.7,242.5 222.6,238.5 219.9,241.1 224,245.2 219.9,249.2 	"/>
</g>
</svg>
